<?xml version="1.0" encoding="UTF-8"?>
<svg version="1.1" xmlns="http://www.w3.org/2000/svg" width="1024" height="1024">
<path d="M0 0 C0.65307129 0.46519043 1.30614258 0.93038086 1.97900391 1.40966797 C10.55249279 7.55000112 18.54442469 14.0588679 26.1796875 21.33203125 C28.44328982 23.47336143 30.73641031 25.50306166 33.125 27.5 C48.06259609 40.50412854 60.55204144 57.27385759 71 74 C71.39751465 74.62890137 71.7950293 75.25780273 72.20458984 75.90576172 C107.61798604 132.35343267 121.90502989 204.49485734 107.01171875 269.79296875 C103.78060659 283.46764095 99.93425735 296.8419804 95 310 C120.08 310 145.16 310 171 310 C171 368.08 171 426.16 171 486 C142.29 486 113.58 486 84 486 C84 510.09 84 534.18 84 559 C113.04 559 142.08 559 172 559 C172 616.42 172 673.84 172 733 C-43.16 733 -258.32 733 -480 733 C-480 675.58 -480 618.16 -480 559 C-450.96 559 -421.92 559 -392 559 C-392 534.91 -392 510.82 -392 486 C-420.71 486 -449.42 486 -479 486 C-479 427.92 -479 369.84 -479 310 C-438.41 309.505 -438.41 309.505 -397 309 C-399.64 300.75 -402.28 292.5 -405 284 C-406.22144106 278.99185167 -407.36273027 274.1090821 -408.3125 269.0625 C-408.64991211 267.38317383 -408.64991211 267.38317383 -408.99414062 265.66992188 C-409.69630347 262.11886909 -410.34770455 258.56052388 -411 255 C-411.27876516 253.61382526 -411.55808441 252.22776185 -411.83789062 250.84179688 C-414.08492443 239.25105433 -414.29778404 228.14734419 -413.875 216.375 C-413.84700317 215.45657318 -413.81900635 214.53814636 -413.79016113 213.59188843 C-411.95266081 153.55449768 -393.19177544 96.87699697 -355 50 C-354.5575293 49.45456543 -354.11505859 48.90913086 -353.65917969 48.34716797 C-342.44470131 34.63136302 -330.06177713 21.80812125 -316 11 C-314.74906037 9.99856844 -313.49913582 8.99586813 -312.25 7.9921875 C-301.73102152 -0.36593981 -290.69577259 -7.40721121 -279 -14 C-277.82848389 -14.66708984 -277.82848389 -14.66708984 -276.63330078 -15.34765625 C-194.55380506 -61.70657059 -85.6666865 -57.37494903 0 0 Z M-345 393 C-345 406.86 -345 420.72 -345 435 C-334.5352813 430.42168557 -325.38729553 426.18854243 -316 420 C-319.07616421 416.88050953 -322.20624862 413.88767245 -325.5 411 C-330.46279402 406.57615194 -335.14784853 401.91451451 -339.796875 397.16601562 C-341.18081242 395.76029711 -342.58819823 394.37773114 -344 393 C-344.33 393 -344.66 393 -345 393 Z M34.3203125 401.65234375 C33.59585938 402.40644531 32.87140625 403.16054688 32.125 403.9375 C26.44036677 409.69489654 20.30130505 414.97824284 13.67578125 419.6328125 C13.12277344 420.08398438 12.56976562 420.53515625 12 421 C12 421.66 12 422.32 12 423 C14.6634594 424.44371606 17.3304992 425.88003077 20 427.3125 C20.74378906 427.71662109 21.48757813 428.12074219 22.25390625 428.53710938 C22.99511719 428.93349609 23.73632812 429.32988281 24.5 429.73828125 C25.50546875 430.28029175 25.50546875 430.28029175 26.53125 430.83325195 C29.92695226 432.43808394 33.48330422 433.68123908 37 435 C37 423.45 37 411.9 37 400 C35.72611738 399.88311993 35.72611738 399.88311993 34.3203125 401.65234375 Z M-186 489 C-187.22660038 490.35045954 -188.48396905 491.67437509 -189.78515625 492.953125 C-190.33091309 493.50589111 -190.87666992 494.05865723 -191.43896484 494.62817383 C-191.97473145 495.16337646 -192.51049805 495.6985791 -193.0625 496.25 C-193.64467285 496.83354248 -194.2268457 497.41708496 -194.82666016 498.01831055 C-199.09035595 502.23460594 -203.51338118 506.03179385 -208.3046875 509.64453125 C-208.86414063 510.09183594 -209.42359375 510.53914062 -210 511 C-210 511.33 -210 511.66 -210 512 C-173.04 512 -136.08 512 -98 512 C-101.57931235 508.42068765 -105.19718648 504.96294212 -108.9375 501.5625 C-113.96063974 496.9591131 -118.86214621 492.2477726 -123.6875 487.4375 C-124.28747803 486.84203369 -124.88745605 486.24656738 -125.50561523 485.63305664 C-126.06450439 485.07223389 -126.62339355 484.51141113 -127.19921875 483.93359375 C-127.69252686 483.43915771 -128.18583496 482.94472168 -128.6940918 482.43530273 C-130 481 -130 481 -132 478 C-133.84448218 477.44601989 -133.84448218 477.44601989 -135.99975586 477.37719727 C-137.23761086 477.28940758 -137.23761086 477.28940758 -138.50047302 477.19984436 C-139.39621536 477.15580978 -140.2919577 477.11177521 -141.21484375 477.06640625 C-142.14035538 477.01999496 -143.065867 476.97358368 -144.01942444 476.92576599 C-145.98530002 476.8372028 -147.95161425 476.75796683 -149.91821289 476.68725586 C-151.91628181 476.60469637 -153.91343202 476.49505331 -155.90844727 476.35717773 C-170.71508515 475.33446008 -177.56721406 476.59655432 -186 489 Z M-80 525 C-80 549.75 -80 574.5 -80 600 C-41.72 600 -3.44 600 36 600 C36 589.77 36 579.54 36 569 C35.01 569 34.02 569 33 569 C33 568.34 33 567.68 33 567 C32.34330322 566.88519287 31.68660645 566.77038574 31.01000977 566.65209961 C-7.2576292 559.86701022 -43.34332359 548.13068786 -76.10546875 526.8359375 C-78.56946335 524.91072978 -78.56946335 524.91072978 -80 525 Z M-234.125 528.25 C-267.27378823 548.90889968 -302.73374789 560.31009578 -341 567 C-341 567.66 -341 568.32 -341 569 C-341.99 569 -342.98 569 -344 569 C-344 579.23 -344 589.46 -344 600 C-305.72 600 -267.44 600 -228 600 C-228 575.25 -228 550.5 -228 525 C-230.1096591 525 -232.46044029 527.18085721 -234.125 528.25 Z " fill="#FEFDFD" transform="translate(666,168)"/>
<path d="M0 0 C0.81791016 0.13921875 1.63582031 0.2784375 2.47851562 0.421875 C47.50453602 8.1961519 89.26052901 31.57663738 122 63 C122.84328857 63.80244141 122.84328857 63.80244141 123.70361328 64.62109375 C132.30704998 72.8469576 139.92093441 81.43785759 147 91 C147.41701172 91.55091309 147.83402344 92.10182617 148.26367188 92.66943359 C185.09438652 141.3509047 200.62614786 204.19958045 193.07373047 264.62939453 C192.49743606 268.44634323 191.78314741 272.22091322 191 276 C190.69255859 277.73636719 190.69255859 277.73636719 190.37890625 279.5078125 C189.70651244 283.04101228 188.89876663 286.51923224 188 290 C187.7839209 290.83805176 187.5678418 291.67610352 187.34521484 292.53955078 C177.46688653 330.03807629 159.76489378 364.0776025 133.29296875 392.51953125 C131.33731934 394.63509748 129.47434119 396.79243291 127.625 399 C114.70068502 413.7921647 98.25305804 425.13387185 81.88427734 435.73242188 C79.86841246 437.08852066 77.93191633 438.52734922 76 440 C102.61044199 462.05237281 132.96888103 477.09066431 166 487 C166 511.42 166 535.84 166 561 C114.74204312 561 64.31707669 541.82540067 25 509 C24.42443359 508.52594727 23.84886719 508.05189453 23.25585938 507.56347656 C9.86329894 496.5112919 -3.310424 484.534364 -13 470 C-15.7912369 469.94094265 -18.35713549 470.06036716 -21.125 470.3125 C-28.69318387 470.84616799 -36.22480489 471.15796392 -43.8125 471.1875 C-45.31526489 471.20103516 -45.31526489 471.20103516 -46.84838867 471.21484375 C-52.01876779 471.20822196 -56.98599839 470.93625419 -62.1015625 470.1640625 C-71.8913056 468.20962305 -71.8913056 468.20962305 -80.984375 470.89453125 C-83.32334873 473.79336572 -85.11584316 476.78967192 -87 480 C-88.73173873 482.1404264 -90.60278017 484.13116398 -92.5 486.125 C-92.96752686 486.62829834 -93.43505371 487.13159668 -93.91674805 487.65014648 C-101.47795938 495.78800434 -109.27621137 503.11647653 -118 510 C-118.97582031 510.79277344 -119.95164062 511.58554687 -120.95703125 512.40234375 C-150.5227755 535.9433703 -186.08999257 550.73425051 -223 558 C-224.60522653 558.37043689 -226.20953066 558.74491449 -227.8125 559.125 C-237.97196583 561.34564827 -247.36918516 561 -258 561 C-258 536.58 -258 512.16 -258 487 C-252.06 485.02 -246.12 483.04 -240 481 C-235.94202295 479.44456577 -231.93547568 477.87736243 -227.9375 476.1875 C-226.92002686 475.75791992 -225.90255371 475.32833984 -224.85424805 474.88574219 C-204.91158162 466.33821127 -182.0481955 454.96447907 -167 439 C-167 438.01 -167 437.02 -167 436 C-169.17714501 434.36561663 -171.31780216 432.92885443 -173.625 431.5 C-186.50285176 423.20760627 -197.97232299 413.60583409 -209 403 C-209.49129395 402.53062012 -209.98258789 402.06124023 -210.48876953 401.57763672 C-225.32023248 387.34441766 -237.64358088 370.72144228 -248 353 C-248.35803711 352.4013916 -248.71607422 351.8027832 -249.08496094 351.18603516 C-259.4811311 333.77943802 -266.28646564 315.40308625 -272 296 C-272.20608887 295.32501465 -272.41217773 294.6500293 -272.62451172 293.95458984 C-281.41771284 264.87174911 -282.58960285 231.91379443 -278 202 C-277.89042969 200.86691406 -277.78085937 199.73382813 -277.66796875 198.56640625 C-273.49553549 157.43813552 -253.41818364 115.36405364 -227 84 C-226.5167627 83.41669922 -226.03352539 82.83339844 -225.53564453 82.23242188 C-216.44162441 71.25922741 -206.92092206 61.06429584 -195.7265625 52.171875 C-193.94683126 50.75420943 -192.19001353 49.30715003 -190.4609375 47.828125 C-161.21421411 22.91097698 -124.30113637 7.74813616 -87 0 C-86.24106445 -0.16661133 -85.48212891 -0.33322266 -84.70019531 -0.50488281 C-57.94119208 -6.18103501 -26.76364935 -4.87758574 0 0 Z " fill="#000000" transform="translate(558,150)"/>
<path d="M0 0 C0.81791016 0.13921875 1.63582031 0.2784375 2.47851562 0.421875 C47.50453602 8.1961519 89.26052901 31.57663738 122 63 C122.84328857 63.80244141 122.84328857 63.80244141 123.70361328 64.62109375 C132.30704998 72.8469576 139.92093441 81.43785759 147 91 C147.41701172 91.55091309 147.83402344 92.10182617 148.26367188 92.66943359 C185.18580242 141.47173485 200.89784589 204.77002156 192.92041016 265.34106445 C192.36801634 268.91686806 191.7374432 272.45763893 191 276 C184.74368467 276.35380542 179.33436283 275.06385725 173.3125 273.4375 C172.29720215 273.16502441 171.2819043 272.89254883 170.23583984 272.61181641 C132.8976562 262.37890599 99.37477571 244.39997447 71 218 C69.60839179 216.7868031 68.21272812 215.57823786 66.8125 214.375 C59.37742063 207.86187047 53.1621328 200.72477892 47 193 C46.11133519 191.91352388 45.22199343 190.82760116 44.33203125 189.7421875 C27.76605954 169.35736978 15.51361658 145.91028571 6.78125 121.19384766 C5.73532117 118.25674875 4.61115632 115.35042716 3.5 112.4375 C2.26013072 109.18284313 2 107.63243063 2 104 C-29.68 104 -61.36 104 -94 104 C-94.99 107.96 -95.98 111.92 -97 116 C-105.98480219 144.26822197 -119.97526366 170.2363745 -139 193 C-139.4846875 193.58620117 -139.969375 194.17240234 -140.46875 194.77636719 C-150.33546623 206.67937836 -160.77894128 217.46086938 -173 227 C-173.94020996 227.74685059 -173.94020996 227.74685059 -174.89941406 228.50878906 C-184.52767557 236.15165249 -194.25117101 243.03429432 -205 249 C-205.69222656 249.39251953 -206.38445312 249.78503906 -207.09765625 250.18945312 C-226.87425326 261.35137863 -252.78984298 275 -276 275 C-281.87307196 251.50771216 -281.658487 225.84503227 -278 202 C-277.89042969 200.86691406 -277.78085937 199.73382813 -277.66796875 198.56640625 C-273.49553549 157.43813552 -253.41818364 115.36405364 -227 84 C-226.5167627 83.41669922 -226.03352539 82.83339844 -225.53564453 82.23242188 C-216.44162441 71.25922741 -206.92092206 61.06429584 -195.7265625 52.171875 C-193.94683126 50.75420943 -192.19001353 49.30715003 -190.4609375 47.828125 C-161.21421411 22.91097698 -124.30113637 7.74813616 -87 0 C-86.24106445 -0.16661133 -85.48212891 -0.33322266 -84.70019531 -0.50488281 C-57.94119208 -6.18103501 -26.76364935 -4.87758574 0 0 Z " fill="#FE0000" transform="translate(558,150)"/>
<path d="M0 0 C31.68 0 63.36 0 96 0 C96 29.04 96 58.08 96 88 C151.11 88 206.22 88 263 88 C263 74.47 263 60.94 263 47 C291.05 47 319.1 47 348 47 C348 87.92 348 128.84 348 171 C150 171 -48 171 -252 171 C-252 130.08 -252 89.16 -252 47 C-223.95 47 -195.9 47 -167 47 C-167 60.53 -167 74.06 -167 88 C-111.89 88 -56.78 88 0 88 C0 58.96 0 29.92 0 0 Z " fill="#000000" transform="translate(464,705)"/>
<path d="M0 0 C31.68 0 63.36 0 96 0 C99.3 9.57 102.6 19.14 106 29 C117.2581903 53.83765695 129.97616389 75.58232342 148 96 C148.66684814 96.76159424 148.66684814 96.76159424 149.34716797 97.53857422 C165.78851875 116.23858334 185.15160627 131.9971589 207 144 C207.7739209 144.4326416 208.5478418 144.8652832 209.34521484 145.31103516 C232.6473241 158.2697456 257.69134869 167.45577841 284 172 C284.58053647 179.10120508 282.47978673 185.41955061 280.5 192.1875 C280.1397876 193.42967285 279.7795752 194.6718457 279.40844727 195.95166016 C268.17275694 233.82724306 268.17275694 233.82724306 260 242 C211.97772808 245.4468093 160.56046455 219.85541407 124 191 C123.44248047 190.56107422 122.88496094 190.12214844 122.31054688 189.66992188 C108.5535557 178.72116219 95.56081412 166.06245972 85 152 C84.5373877 151.40268066 84.07477539 150.80536133 83.59814453 150.18994141 C49 105.40095035 49 105.40095035 49 84 C48.34 84 47.68 84 47 84 C46.8772168 84.88107422 46.75443359 85.76214844 46.62792969 86.66992188 C42.15932588 110.36811627 24.95540084 134.54301734 10 153 C9.53303711 153.58120605 9.06607422 154.16241211 8.58496094 154.76123047 C-3.13435612 169.22917123 -16.27913997 182.7524238 -31.3203125 193.76904297 C-32.9970759 194.99785707 -34.65487153 196.24944508 -36.3125 197.50390625 C-70.04451585 222.67514535 -115.38870859 242 -158 242 C-183.11201163 193.49685064 -183.11201163 193.49685064 -182 171 C-180.74445313 170.67386719 -179.48890625 170.34773437 -178.1953125 170.01171875 C-176.50518357 169.57040731 -174.81508081 169.12899566 -173.125 168.6875 C-172.30257813 168.47416016 -171.48015625 168.26082031 -170.6328125 168.04101562 C-122.15201612 155.3526822 -77.29719627 128.52778222 -46 89 C-45.15824219 87.98679687 -44.31648437 86.97359375 -43.44921875 85.9296875 C-22.42598506 60.40862068 -10.76742493 31.22553229 0 0 Z " fill="#000000" transform="translate(464,254)"/>
<path d="M0 0 C0.66 0 1.32 0 2 0 C2.20044922 0.52207031 2.40089844 1.04414063 2.60742188 1.58203125 C19.12181833 44.34720303 44.67533539 82.59721701 82 110 C83.1289452 110.84760437 84.25785143 111.69526066 85.38671875 112.54296875 C123.07616653 140.49287151 166.70117279 153.91361198 213 158 C210.10126555 164.02373017 207.08096989 169.78847462 203.3125 175.3125 C202.88388672 175.94639648 202.45527344 176.58029297 202.01367188 177.23339844 C195.40856899 186.89999062 188.27733185 195.94098299 180.29296875 204.51953125 C178.33731934 206.63509748 176.47434119 208.79243291 174.625 211 C161.66647054 225.83132392 145.16065671 237.18711977 128.77075195 247.84594727 C127.1736345 248.88683713 125.58619338 249.94253774 124 251 C119.45498239 250.80078657 117.5186342 248.93465757 114.5 245.6875 C112.18185578 243.25459616 110.0196011 241.01540086 107.375 238.9375 C104.53570205 236.62123062 102.29948345 234.02117367 99.9296875 231.234375 C98.65463039 229.75799309 97.34725191 228.30885497 96.0078125 226.890625 C74.45497469 203.99566909 44 158.75185202 44 126 C15.62 126 -12.76 126 -42 126 C-43.32 131.28 -44.64 136.56 -46 142 C-47.1893783 145.69556829 -48.39423632 149.30916241 -49.75 152.9375 C-50.09434082 153.86715576 -50.43868164 154.79681152 -50.79345703 155.75463867 C-61.21983672 183.39948033 -76.93198 207.83407144 -96.84375 229.62109375 C-98.79615436 231.77510509 -100.68277359 233.97027726 -102.5625 236.1875 C-107.1447416 241.45174965 -112.39605687 245.86227702 -118 250 C-118.63164062 249.53851562 -119.26328125 249.07703125 -119.9140625 248.6015625 C-120.80867188 247.94929687 -121.70328125 247.29703125 -122.625 246.625 C-123.63304687 245.88894531 -124.64109375 245.15289063 -125.6796875 244.39453125 C-127.87477206 242.80136678 -130.08769308 241.23929453 -132.3203125 239.69921875 C-150.95295875 226.78733323 -168.27338309 211.08857596 -182 193 C-182.4326416 192.43313477 -182.8652832 191.86626953 -183.31103516 191.28222656 C-189.74533869 182.81568236 -195.59269223 174.15671457 -201 165 C-201.5671875 164.09507812 -202.134375 163.19015625 -202.71875 162.2578125 C-204 160 -204 160 -204 158 C-198.39945552 156.95474817 -192.79684341 155.95174935 -187.16796875 155.0703125 C-176.20764876 153.3499814 -165.55041065 151.51680355 -155 148 C-153.80600586 147.62198242 -153.80600586 147.62198242 -152.58789062 147.23632812 C-124.19899723 138.23091359 -98.091066 124.86018681 -75 106 C-74.48840332 105.58991699 -73.97680664 105.17983398 -73.44970703 104.75732422 C-60.01095642 93.96705601 -47.38568529 81.77545758 -37 68 C-36.5359375 67.40123047 -36.071875 66.80246094 -35.59375 66.18554688 C-19.97413605 45.96372525 -8.77492015 23.93859794 0 0 Z " fill="#FE0000" transform="translate(511,338)"/>
<path d="M0 0 C27.72 0 55.44 0 84 0 C84 41.58 84 83.16 84 126 C56.28 126 28.56 126 0 126 C0 84.42 0 42.84 0 0 Z " fill="#030303" transform="translate(728,503)"/>
<path d="M0 0 C27.72 0 55.44 0 84 0 C84 41.58 84 83.16 84 126 C56.28 126 28.56 126 0 126 C0 84.42 0 42.84 0 0 Z " fill="#030303" transform="translate(212,503)"/>
<path d="M0 0 C0.66 0 1.32 0 2 0 C2.22550537 0.52207031 2.45101074 1.04414062 2.68334961 1.58203125 C9.37127532 16.97656119 16.72888045 31.48908098 26.203125 45.359375 C28.57463587 48.84446489 30.79095886 52.41030815 33 56 C12.22959223 58.93722938 -8.2086704 58.57591694 -29 56 C-29 51.18535709 -27.94138763 50.11803415 -25.125 46.3125 C-14.84676796 31.99411473 -6.37369006 16.44412036 0 0 Z " fill="#FC0101" transform="translate(511,563)"/>
</svg>
