<?xml version="1.0" encoding="UTF-8"?>
<!DOCTYPE svg PUBLIC "-//W3C//DTD SVG 1.1//EN" "http://www.w3.org/Graphics/SVG/1.1/DTD/svg11.dtd">
<!-- Creator: CorelDRAW X7 -->
<svg xmlns="http://www.w3.org/2000/svg" xml:space="preserve" width="512px" height="512px" version="1.1" shape-rendering="geometricPrecision" text-rendering="geometricPrecision" image-rendering="optimizeQuality" fill-rule="evenodd" clip-rule="evenodd"
viewBox="0 0 512 512"
 xmlns:xlink="http://www.w3.org/1999/xlink">
 <defs>
   <clipPath id="id0">
    <path d="M256 0c141,0 256,115 256,256 0,141 -115,256 -256,256 -141,0 -256,-115 -256,-256 0,-141 115,-256 256,-256z"/>
   </clipPath>
 </defs>
 <g id="Layer_x0020_1">
  <metadata id="CorelCorpID_0Corel-Layer"/>
  <path fill="white" d="M256 0c141,0 256,115 256,256 0,141 -115,256 -256,256 -141,0 -256,-115 -256,-256 0,-141 115,-256 256,-256z"/>
  <g clip-path="url(#id0)">
   <g id="_2074703632192">
    <g>
     <circle fill="red" cx="257" cy="203" r="99"/>
     <line fill="none" x1="345" y1="309" x2="345" y2= "340" />
     <line fill="none" x1="167" y1="309" x2="167" y2= "340" />
     <path fill="black" d="M170 250c29,-3 54,-17 71,-39 4,-5 7,-11 10,-17 2,-3 4,-7 5,-11 1,4 3,8 5,11 3,6 6,12 10,17 17,22 44,37 74,39 5,-9 8,-19 10,-30 -32,-5 -58,-26 -72,-54 0,0 0,0 0,0 -3,-6 -5,-12 -7,-18l-20 0 -20 0c-2,6 -4,12 -7,18 0,0 0,0 0,0 -13,28 -39,48 -69,54 1,8 4,17 7,24 1,2 2,4 3,6z"/>
     <path fill="black" d="M256 236l-18 0c-5,21 -16,39 -32,52 -2,2 -5,4 -7,6 -10,7 -20,12 -32,15l0 31c31,-1 58,-16 76,-39 1,-2 3,-5 4,-7 4,-5 7,-11 9,-17 2,6 5,12 8,17 2,2 4,5 6,7 17,23 44,38 75,39l0 -31c-12,-3 -22,-8 -32,-15 -2,-2 -4,-3 -6,-5 -16,-14 -28,-32 -33,-53l-18 0z"/>
     <polygon fill="black" points="347,294 347,305 382,305 382,294 382,253 347,253 "/>
     <polygon fill="black" points="256,409 256,409 382,409 382,374 382,357 346,357 346,374 276,374 276,337 256,337 256,337 236,337 236,374 166,374 166,357 130,357 130,374 130,409 "/>
     <polygon fill="black" points="130,294 130,305 165,305 165,294 165,253 130,253 "/>
    </g>
   </g>
  </g>
  <path fill="none" d="M256 0c141,0 256,115 256,256 0,141 -115,256 -256,256 -141,0 -256,-115 -256,-256 0,-141 115,-256 256,-256z"/>
 </g>
</svg>
