<?xml version="1.0" encoding="UTF-8"?>
<!DOCTYPE svg PUBLIC "-//W3C//DTD SVG 1.1//EN" "http://www.w3.org/Graphics/SVG/1.1/DTD/svg11.dtd">
<!-- Creator: CorelDRAW X7 -->
<svg xmlns="http://www.w3.org/2000/svg" xml:space="preserve" width="48px" height="48px" version="1.1" shape-rendering="geometricPrecision" text-rendering="geometricPrecision" image-rendering="optimizeQuality" fill-rule="evenodd" clip-rule="evenodd"
viewBox="0 0 48 48"
 xmlns:xlink="http://www.w3.org/1999/xlink">
 <defs>
   <clipPath id="id0">
    <path d="M24 0c13,0 24,11 24,24 0,13 -11,24 -24,24 -13,0 -24,-11 -24,-24 0,-13 11,-24 24,-24z"/>
   </clipPath>
 </defs>
 <g id="Layer_x0020_1">
  <metadata id="CorelCorpID_0Corel-Layer"/>
  <path fill="white" d="M24 0c13,0 24,11 24,24 0,13 -11,24 -24,24 -13,0 -24,-11 -24,-24 0,-13 11,-24 24,-24z"/>
  <g clip-path="url(#id0)">
   <g id="_2074703635584">
    <g>
     <circle fill="red" cx="24" cy="19" r="9"/>
     <line fill="none" x1="32" y1="29" x2="32" y2= "32" />
     <line fill="none" x1="16" y1="29" x2="16" y2= "32" />
     <path fill="black" d="M16 23c3,0 5,-1 7,-3 0,-1 0,-1 1,-2 0,0 0,0 0,-1 0,1 0,1 0,1 1,1 1,1 1,2 2,2 5,3 7,3 1,0 1,-1 1,-2 -3,-1 -5,-3 -6,-5 0,0 0,0 0,0 -1,-1 -1,-2 -1,-2l-2 0 -2 0c0,0 0,1 -1,2 0,0 0,0 0,0 -1,2 -3,4 -6,5 0,0 0,1 1,2 0,0 0,0 0,0z"/>
     <path fill="black" d="M24 22l-2 0c0,2 -1,4 -3,5 0,0 0,0 0,1 -1,0 -2,1 -3,1l0 3c3,0 5,-2 7,-4 0,0 0,0 0,0 1,-1 1,-1 1,-2 0,1 0,1 1,2 0,0 0,0 0,0 2,2 4,4 7,4l0 -3c-1,0 -2,-1 -3,-1 0,-1 0,-1 0,-1 -2,-1 -3,-3 -3,-5l-2 0z"/>
     <polygon fill="black" points="33,28 33,29 36,29 36,28 36,24 33,24 "/>
     <polygon fill="black" points="24,38 24,38 36,38 36,35 36,33 32,33 32,35 26,35 26,32 24,32 24,32 22,32 22,35 16,35 16,33 12,33 12,35 12,38 "/>
     <polygon fill="black" points="12,28 12,29 15,29 15,28 15,24 12,24 "/>
    </g>
   </g>
  </g>
  <path fill="none" d="M24 0c13,0 24,11 24,24 0,13 -11,24 -24,24 -13,0 -24,-11 -24,-24 0,-13 11,-24 24,-24z"/>
 </g>
</svg>
