<?xml version="1.0" encoding="UTF-8"?>
<!DOCTYPE svg PUBLIC "-//W3C//DTD SVG 1.1//EN" "http://www.w3.org/Graphics/SVG/1.1/DTD/svg11.dtd">
<!-- Creator: CorelDRAW X7 -->
<svg xmlns="http://www.w3.org/2000/svg" xml:space="preserve" width="192px" height="192px" version="1.1" shape-rendering="geometricPrecision" text-rendering="geometricPrecision" image-rendering="optimizeQuality" fill-rule="evenodd" clip-rule="evenodd"
viewBox="0 0 192 192"
 xmlns:xlink="http://www.w3.org/1999/xlink">
 <defs>
   <clipPath id="id0">
    <path d="M96 0c53,0 96,43 96,96 0,53 -43,96 -96,96 -53,0 -96,-43 -96,-96 0,-53 43,-96 96,-96z"/>
   </clipPath>
 </defs>
 <g id="Layer_x0020_1">
  <metadata id="CorelCorpID_0Corel-Layer"/>
  <path fill="white" d="M96 0c53,0 96,43 96,96 0,53 -43,96 -96,96 -53,0 -96,-43 -96,-96 0,-53 43,-96 96,-96z"/>
  <g clip-path="url(#id0)">
   <g id="_2074700223568">
    <g>
     <circle fill="red" cx="97" cy="76" r="37"/>
     <line fill="none" x1="129" y1="116" x2="129" y2= "127" />
     <line fill="none" x1="63" y1="116" x2="63" y2= "127" />
     <path fill="black" d="M64 94c11,-1 20,-7 26,-15 2,-2 3,-4 4,-6 1,-2 2,-3 2,-4 0,1 1,2 2,4 1,2 2,4 4,6 6,9 16,14 27,15 2,-4 3,-7 4,-11 -12,-2 -22,-10 -27,-21 0,0 0,0 0,0 -1,-2 -2,-4 -3,-6l-7 0 -7 0c-1,2 -2,4 -3,6 0,0 0,0 0,0 -5,11 -15,18 -26,20 0,4 1,7 3,10 0,0 0,1 1,2z"/>
     <path fill="black" d="M96 89l-7 0c-2,7 -6,14 -12,19 0,1 -1,2 -2,2 -4,3 -8,5 -12,6l0 11c11,0 21,-6 28,-14 1,-1 1,-2 2,-3 1,-2 2,-4 3,-6 1,2 2,4 3,6 1,1 1,2 2,3 7,8 17,14 28,14l0 -11c-4,-1 -8,-3 -12,-6 0,0 -1,-1 -2,-2 -6,-5 -10,-12 -12,-19l-7 0z"/>
     <polygon fill="black" points="130,110 130,114 143,114 143,110 143,95 130,95 "/>
     <polygon fill="black" points="96,153 96,153 143,153 143,140 143,134 130,134 130,140 104,140 104,127 96,127 96,127 88,127 88,140 62,140 62,134 49,134 49,140 49,153 "/>
     <polygon fill="black" points="49,110 49,114 62,114 62,110 62,95 49,95 "/>
    </g>
   </g>
  </g>
  <path fill="none" d="M96 0c53,0 96,43 96,96 0,53 -43,96 -96,96 -53,0 -96,-43 -96,-96 0,-53 43,-96 96,-96z"/>
 </g>
</svg>
