<?xml version="1.0" encoding="UTF-8"?>
<!DOCTYPE svg PUBLIC "-//W3C//DTD SVG 1.1//EN" "http://www.w3.org/Graphics/SVG/1.1/DTD/svg11.dtd">
<!-- Creator: CorelDRAW X7 -->
<svg xmlns="http://www.w3.org/2000/svg" xml:space="preserve" width="180px" height="180px" version="1.1" shape-rendering="geometricPrecision" text-rendering="geometricPrecision" image-rendering="optimizeQuality" fill-rule="evenodd" clip-rule="evenodd"
viewBox="0 0 180 180"
 xmlns:xlink="http://www.w3.org/1999/xlink">
 <defs>
   <clipPath id="id0">
    <path d="M90 0c50,0 90,40 90,90 0,50 -40,90 -90,90 -50,0 -90,-40 -90,-90 0,-50 40,-90 90,-90z"/>
   </clipPath>
 </defs>
 <g id="Layer_x0020_1">
  <metadata id="CorelCorpID_0Corel-Layer"/>
  <path fill="white" d="M90 0c50,0 90,40 90,90 0,50 -40,90 -90,90 -50,0 -90,-40 -90,-90 0,-50 40,-90 90,-90z"/>
  <g clip-path="url(#id0)">
   <g id="_2074703662016">
    <g>
     <circle fill="red" cx="90" cy="71" r="35"/>
     <line fill="none" x1="121" y1="109" x2="121" y2= "120" />
     <line fill="none" x1="59" y1="109" x2="59" y2= "120" />
     <path fill="black" d="M60 88c10,-1 19,-6 25,-14 1,-2 2,-4 3,-6 1,-1 2,-2 2,-4 0,2 1,3 2,4 1,2 2,4 3,6 6,8 16,13 26,14 2,-3 3,-7 4,-10 -11,-2 -21,-10 -26,-20 0,0 0,0 0,0 -1,-2 -1,-4 -2,-6l-7 0 -7 0c-1,2 -1,4 -2,6 0,0 0,0 0,0 -5,10 -14,17 -25,19 1,3 2,6 3,9 0,0 0,1 1,2z"/>
     <path fill="black" d="M90 83l-6 0c-2,7 -6,14 -11,18 -1,1 -2,2 -3,2 -3,3 -7,4 -11,6l0 11c11,-1 20,-6 26,-14 1,-1 1,-2 2,-3 1,-2 2,-3 3,-6 1,3 2,4 3,6 1,1 1,2 2,3 6,8 15,13 26,14l0 -11c-4,-2 -8,-3 -11,-6 -1,0 -1,-1 -2,-1 -6,-5 -10,-12 -12,-19l-6 0z"/>
     <polygon fill="black" points="122,103 122,107 134,107 134,103 134,89 122,89 "/>
     <polygon fill="black" points="90,144 90,144 134,144 134,132 134,125 122,125 122,132 97,132 97,119 90,119 90,119 83,119 83,132 58,132 58,125 46,125 46,132 46,144 "/>
     <polygon fill="black" points="46,103 46,107 58,107 58,103 58,89 46,89 "/>
    </g>
   </g>
  </g>
  <path fill="none" d="M90 0c50,0 90,40 90,90 0,50 -40,90 -90,90 -50,0 -90,-40 -90,-90 0,-50 40,-90 90,-90z"/>
 </g>
</svg>
