<?xml version="1.0" encoding="UTF-8"?>
<!DOCTYPE svg PUBLIC "-//W3C//DTD SVG 1.1//EN" "http://www.w3.org/Graphics/SVG/1.1/DTD/svg11.dtd">
<!-- Creator: CorelDRAW X7 -->
<svg xmlns="http://www.w3.org/2000/svg" xml:space="preserve" width="32px" height="32px" version="1.1" shape-rendering="geometricPrecision" text-rendering="geometricPrecision" image-rendering="optimizeQuality" fill-rule="evenodd" clip-rule="evenodd"
viewBox="0 0 32 32"
 xmlns:xlink="http://www.w3.org/1999/xlink">
 <defs>
   <clipPath id="id0">
    <path d="M16 0c9,0 16,7 16,16 0,9 -7,16 -16,16 -9,0 -16,-7 -16,-16 0,-9 7,-16 16,-16z"/>
   </clipPath>
 </defs>
 <g id="Layer_x0020_1">
  <metadata id="CorelCorpID_0Corel-Layer"/>
  <path fill="white" d="M16 0c9,0 16,7 16,16 0,9 -7,16 -16,16 -9,0 -16,-7 -16,-16 0,-9 7,-16 16,-16z"/>
  <g clip-path="url(#id0)">
   <g id="_2074703648352">
    <g>
     <circle fill="red" cx="16" cy="13" r="6"/>
     <line fill="none" x1="22" y1="19" x2="22" y2= "21" />
     <line fill="none" x1="10" y1="19" x2="10" y2= "21" />
     <path fill="black" d="M11 16c1,-1 3,-1 4,-3 0,0 1,0 1,-1 0,0 0,0 0,-1 0,1 0,1 0,1 0,1 1,1 1,1 1,2 3,3 5,3 0,-1 0,-2 0,-2 -2,-1 -3,-2 -4,-4 0,0 0,0 0,0 -1,0 -1,0 -1,-1l-1 0 -1 0c0,1 0,1 -1,1 0,0 0,0 0,0 -1,2 -2,3 -4,4 0,0 0,1 0,1 0,0 1,0 1,1z"/>
     <path fill="black" d="M16 15l-1 0c0,1 -1,2 -2,3 0,0 0,0 -1,0 0,1 -1,1 -2,1l0 2c2,0 4,-1 5,-2 0,0 0,0 0,-1 1,0 1,0 1,-1 0,1 0,1 1,1 0,1 0,1 0,1 1,1 3,2 5,2l0 -2c-1,0 -2,0 -2,-1 -1,0 -1,0 -1,0 -1,-1 -2,-2 -2,-3l-1 0z"/>
     <polygon fill="black" points="22,18 22,19 24,19 24,18 24,16 22,16 "/>
     <polygon fill="black" points="16,26 16,26 24,26 24,23 24,22 22,22 22,23 17,23 17,21 16,21 16,21 15,21 15,23 10,23 10,22 8,22 8,23 8,26 "/>
     <polygon fill="black" points="8,18 8,19 10,19 10,18 10,16 8,16 "/>
    </g>
   </g>
  </g>
  <path fill="none" d="M16 0c9,0 16,7 16,16 0,9 -7,16 -16,16 -9,0 -16,-7 -16,-16 0,-9 7,-16 16,-16z"/>
 </g>
</svg>
