<?xml version="1.0" encoding="UTF-8"?>
<svg xmlns="http://www.w3.org/2000/svg" baseProfile="tiny-ps" version="1.2" viewBox="0 0 23.04 23.04">
  <title>Nihonbuzz</title>
  <path d="M11.56,11.92c2.51,0,4.55-2.04,4.55-4.55s-2.04-4.55-4.55-4.55-4.55,2.05-4.55,4.55,2.04,4.55,4.55,4.55Z" fill="#FF0000" fill-rule="evenodd"/>
  <path d="M7.55,9.53c1.32-.1,2.49-.77,3.25-1.76.19-.24.35-.5.48-.78.08-.16.15-.33.21-.51.06.17.13.34.21.51.14.28.3.54.48.78.79,1.02,2,1.7,3.37,1.77.22-.41.38-.86.47-1.34-1.46-.25-2.68-1.2-3.32-2.49,0,0,0,0,0,0-.13-.26-.23-.54-.31-.83h-1.83c-.08.29-.18.57-.31.83,0,0,0,0,0,0-.61,1.25-1.79,2.18-3.2,2.46.07.39.19.76.35,1.11.04.08.08.17.12.25Z" fill="#000000" fill-rule="evenodd"/>
  <path d="M11.49,8.91h-.82c-.23.94-.74,1.76-1.45,2.37-.11.1-.23.19-.35.28-.43.31-.92.54-1.45.68v1.43c1.41-.05,2.66-.74,3.46-1.79.08-.1.15-.21.22-.32.15-.24.28-.5.39-.76.11.27.24.52.39.76.07.11.15.22.23.33.8,1.04,2.05,1.73,3.45,1.78v-1.43c-.53-.14-1.02-.37-1.45-.68-.1-.07-.21-.15-.3-.23-.73-.61-1.26-1.45-1.5-2.41h-.82Z" fill="#000000" fill-rule="evenodd"/>
  <polygon points="15.65 11.56 15.65 12.07 17.25 12.07 17.25 11.56 17.25 9.67 15.65 9.67 15.65 11.56" fill="#000000" fill-rule="evenodd"/>
  <polygon points="11.49 16.82 11.49 16.82 17.25 16.82 17.25 15.24 17.25 14.45 15.62 14.45 15.62 15.24 12.42 15.24 12.42 13.55 11.49 13.55 11.49 13.55 10.57 13.55 10.57 15.24 7.36 15.24 7.36 14.45 5.73 14.45 5.73 15.24 5.73 16.82 11.49 16.82" fill="#000000" fill-rule="evenodd"/>
  <polygon points="5.74 11.56 5.74 12.07 7.34 12.07 7.34 11.56 7.34 9.67 5.74 9.67 5.74 11.56" fill="#000000" fill-rule="evenodd"/>
  <path d="M5.82,20.19s-.02,0-.02-.02v-2.09s0-.02.02-.02h.28l.52,1.21-.02-1.19s0-.02.03-.02h.3s.02,0,.02.02v2.1s0,.02-.01.02h-.27l-.53-1.13.02,1.11s0,.02-.03.02h-.31Z" fill="#000000" fill-rule="evenodd"/>
  <path d="M7.23,20.19s-.02,0-.02-.02v-2.11s0-.01.02-.01h.34s.01,0,.01.01v2.11s0,.02,0,.02h-.35Z" fill="#000000" fill-rule="evenodd"/>
  <path d="M7.87,20.19s-.01,0-.01-.02v-2.11s0-.01.02-.01h.34s.02,0,.02.01v.84s.46,0,.46,0v-.84s0-.01.01-.01h.34s.02,0,.02.01v2.11s0,.02,0,.02h-.34s-.02,0-.02-.02v-.9h-.46v.9s0,.02-.01.02h-.35Z" fill="#000000" fill-rule="evenodd"/>
  <path d="M9.89,20.22c-.11,0-.21-.03-.3-.08-.09-.06-.16-.13-.22-.22-.06-.09-.08-.2-.08-.31v-.97c0-.11.03-.22.08-.31.05-.09.13-.17.22-.22.09-.06.19-.08.3-.08s.21.03.3.08c.09.06.16.13.22.22.05.09.08.19.08.31v.97c0,.11-.02.22-.08.31-.05.09-.13.17-.22.22-.09.06-.19.08-.3.08h0ZM9.89,19.85c.06,0,.12-.02.16-.08.05-.05.07-.11.07-.17v-.97c0-.07-.02-.12-.07-.17-.04-.05-.1-.07-.16-.07s-.12.02-.16.07c-.05.05-.07.1-.07.17v.97c0,.07.02.13.07.17.05.05.1.07.16.07Z" fill="#000000" fill-rule="evenodd"/>
  <path d="M10.75,20.19s-.02,0-.02-.02v-2.09s0-.02.02-.02h.28l.52,1.21-.02-1.19s0-.02.03-.02h.3s.02,0,.02.02v2.1s0,.02-.01.02h-.27l-.53-1.13.02,1.11s0,.02-.03.02h-.31Z" fill="#000000" fill-rule="evenodd"/>
  <path d="M12.16,20.19s-.01,0-.01-.02v-2.11s.01-.01.02-.01h.59c.12,0,.22.03.31.08.09.06.17.13.22.22s.08.19.08.3c0,.09-.02.17-.06.25-.04.08-.09.14-.14.18.06.06.11.13.14.21.03.08.05.16.05.25,0,.12-.03.23-.09.33-.06.1-.13.18-.23.23-.1.06-.21.09-.32.09h-.55ZM12.52,18.9h.23c.07,0,.13-.03.17-.08.04-.05.07-.1.07-.16,0-.07-.02-.12-.07-.17-.05-.05-.1-.07-.17-.07h-.23v.48h0ZM12.52,19.82h.19c.07,0,.14-.03.19-.08.05-.05.08-.12.08-.19s-.03-.14-.08-.19c-.05-.05-.12-.08-.19-.08h-.19v.54Z" fill="#000000" fill-rule="evenodd"/>
  <path d="M14.14,20.22c-.11,0-.21-.03-.3-.08-.09-.06-.17-.13-.22-.23-.05-.09-.08-.2-.08-.31v-1.54s.01-.01.02-.01h.34s.01,0,.01.01v1.54c0,.07.02.13.07.18.04.05.1.07.16.07s.12-.02.16-.07c.04-.05.07-.11.07-.18v-1.54s0-.01.01-.01h.34s.01,0,.01.01v1.54c0,.11-.02.22-.08.31-.05.09-.13.17-.22.22-.09.06-.19.08-.31.08Z" fill="#000000" fill-rule="evenodd"/>
  <path d="M14.9,20.19s-.02,0-.02-.02v-.33s.76-1.44.76-1.44h-.71s-.01,0-.01-.01v-.32s0-.02.01-.02h1.11s.02,0,.02.02v.33l-.75,1.43h.74s.01,0,.01.02v.33s0,.02-.01.02h-1.15Z" fill="#000000" fill-rule="evenodd"/>
  <path d="M16.15,20.19s-.02,0-.02-.02v-.33s.76-1.44.76-1.44h-.71s-.01,0-.01-.01v-.32s0-.02.01-.02h1.11s.02,0,.02.02v.33l-.75,1.43h.74s.01,0,.01.02v.33s0,.02-.01.02h-1.15Z" fill="#000000" fill-rule="evenodd"/>
</svg>